<svg xmlns="http://www.w3.org/2000/svg" version="1.1" xmlns:xlink="http://www.w3.org/1999/xlink" width="512" height="512" x="0" y="0" viewBox="0 0 64 64" style="enable-background:new 0 0 512 512" xml:space="preserve" class=""><g><path fill="#3e5367" fill-rule="evenodd" d="M33.414 4.586a2 2 0 0 0-2.828 0l-7 7a2 2 0 1 0 2.828 2.828L30 10.828V28a2 2 0 1 0 4 0V10.828l3.586 3.586a2 2 0 1 0 2.828-2.828zM53.88 37.024a3 3 0 0 1 4.242 0l.465.464a2 2 0 1 0 2.828-2.828l-.464-.465a7 7 0 0 0-9.9 0l-.929.93a3 3 0 0 1-4.242 0l-.93-.93a7 7 0 0 0-9.899 0l-.929.93a3 3 0 0 1-4.242 0l-.93-.93a7 7 0 0 0-9.899 0l-.929.93a3 3 0 0 1-4.242 0l-.93-.93a7 7 0 0 0-9.899 0l-.464.465a2 2 0 1 0 2.828 2.828l.465-.464a3 3 0 0 1 4.242 0l.93.929a7 7 0 0 0 9.899 0l.929-.93a3 3 0 0 1 4.242 0l.93.93a7 7 0 0 0 9.899 0l.929-.93a3 3 0 0 1 4.242 0l.93.93a7 7 0 0 0 9.899 0zm0 10a3 3 0 0 1 4.242 0l.465.464a2 2 0 1 0 2.828-2.828l-.464-.465a7 7 0 0 0-9.9 0l-.929.93a3 3 0 0 1-4.242 0l-.93-.93a7 7 0 0 0-9.899 0l-.929.93a3 3 0 0 1-4.242 0l-.93-.93a7 7 0 0 0-9.899 0l-.929.93a3 3 0 0 1-4.242 0l-.93-.93a7 7 0 0 0-9.899 0l-.464.465a2 2 0 1 0 2.828 2.828l.465-.464a3 3 0 0 1 4.242 0l.93.929a7 7 0 0 0 9.899 0l.929-.93a3 3 0 0 1 4.242 0l.93.93a7 7 0 0 0 9.899 0l.929-.93a3 3 0 0 1 4.242 0l.93.93a7 7 0 0 0 9.899 0zm4.242 10a3 3 0 0 0-4.242 0l-.93.929a7 7 0 0 1-9.899 0l-.929-.93a3 3 0 0 0-4.242 0l-.93.93a7 7 0 0 1-9.899 0l-.929-.93a3 3 0 0 0-4.242 0l-.93.93a7 7 0 0 1-9.899 0l-.929-.93a3 3 0 0 0-4.242 0l-.465.465a2 2 0 1 1-2.828-2.828l.464-.465a7 7 0 0 1 9.9 0l.929.93a3 3 0 0 0 4.242 0l.93-.93a7 7 0 0 1 9.899 0l.929.93a3 3 0 0 0 4.242 0l.93-.93a7 7 0 0 1 9.899 0l.929.93a3 3 0 0 0 4.242 0l.93-.93a7 7 0 0 1 9.899 0l.464.465a2 2 0 1 1-2.828 2.828z" clip-rule="evenodd" opacity="1" data-original="#000000" class=""></path></g></svg>